# xmcd CD database file
#
# Track frame offsets:
#	150
#	20312
#	41221
#	61397
#
# Disc length: 1091 seconds
#
# Revision: 2
# Processed by: cddbd v1.5.2PL0 Copyright (c) Steve Scherf et al.
# Submitted via: CDex 1.51
#
DISCID=2e044104
DTITLE=奥井雅美 - Destiny girl
DYEAR=1998
DGENRE=Anime
TTITLE0=Destiny girl
TTITLE1=狼が来た
TTITLE2=Destiny girl(off vocal)
TTITLE3=狼が来た(off vocal)
EXTD=YEAR: 1998
EXTT0=
EXTT1=
EXTT2=
EXTT3=
PLAYORDER=
